<svg xmlns="http://www.w3.org/2000/svg" width="842" height="185" fill="none"><g clip-path="url(#a)"><circle cx="400.826" cy="94.826" r="29.5" fill="#2A3133" stroke="#2A3133" transform="rotate(25.065 400.826 94.826)"/><circle cx="400.826" cy="94.826" r="41.5" stroke="#2A3133" stroke-width="7" transform="rotate(25.065 400.826 94.826)"/><path fill="#2A3133" stroke="#2A3133" d="m356.989 98.611 62.478-43.64 6.556 75.927z"/><circle cx="401.237" cy="95.237" r="24.5" fill="#C6C6C6" stroke="#2A3133" transform="rotate(25.065 401.237 95.237)"/><mask id="b" width="778" height="130" x="33" y="35" fill="#000" maskUnits="userSpaceOnUse"><path fill="#fff" d="M33 35h778v130H33z"/><path d="M43.39 164h-8.96V68h8.96v11.968q3.328-6.08 9.088-9.856t13.696-3.776q6.976 0 13.056 2.624 6.144 2.624 10.752 7.296 4.608 4.608 7.232 10.688T99.838 100t-2.624 13.12-7.232 10.816q-4.608 4.608-10.752 7.232-6.08 2.624-13.056 2.624-7.936 0-13.696-3.776t-9.088-9.856zm22.72-88.96q-6.72 0-11.712 3.392-4.928 3.328-7.616 8.96T44.094 100q0 6.848 2.624 12.544 2.688 5.696 7.616 9.088 4.992 3.392 11.776 3.392 6.656 0 12.224-3.328 5.632-3.328 9.024-8.96Q90.75 107.04 90.75 100q0-6.847-3.328-12.48-3.328-5.696-8.896-9.088-5.567-3.392-12.416-3.392m99.878 17.344V132h-8.96V94.176q0-5.248-2.56-9.536a19.5 19.5 0 0 0-6.848-6.848q-4.288-2.56-9.536-2.56-5.184 0-9.536 2.56a19.5 19.5 0 0 0-6.848 6.848q-2.56 4.288-2.56 9.536V132h-8.96V36h8.96v40.832q3.391-4.864 8.832-7.744 5.44-2.88 11.84-2.88 7.232 0 13.184 3.52t9.472 9.472 3.52 13.184M230.163 68h8.96v64h-8.96l-.32-11.904q-3.136 6.08-8.768 9.856-5.632 3.712-13.44 3.712-7.04 0-13.184-2.624-6.144-2.688-10.816-7.36a34.1 34.1 0 0 1-7.296-10.816q-2.624-6.144-2.624-13.184 0-6.912 2.56-12.992 2.624-6.08 7.168-10.688a33.4 33.4 0 0 1 10.624-7.168q6.08-2.624 12.992-2.624 8 0 13.952 3.84 5.952 3.776 9.472 9.92zm-22.72 56.96q6.848 0 11.776-3.328 4.928-3.392 7.552-9.088 2.688-5.696 2.688-12.544 0-7.04-2.688-12.672-2.688-5.696-7.616-9.024t-11.712-3.328-12.416 3.392q-5.568 3.328-8.896 9.024-3.264 5.696-3.264 12.608 0 6.976 3.392 12.672 3.392 5.632 8.96 8.96 5.632 3.328 12.224 3.328m100.295-32.576V132h-8.96V94.176q0-5.248-2.56-9.536a19.5 19.5 0 0 0-6.848-6.848q-4.288-2.56-9.536-2.56-5.184 0-9.536 2.56a19.5 19.5 0 0 0-6.848 6.848q-2.56 4.288-2.56 9.536V132h-8.96V68h8.96v8.832q3.391-4.864 8.832-7.744 5.44-2.88 11.84-2.88 7.232 0 13.184 3.52t9.472 9.472 3.52 13.184m45.521-15.424h-15.296l-.064 55.04h-8.96l.064-55.04h-11.584V68h11.584l-.064-20.096h8.96L337.963 68h15.296zM456.93 132V68h8.96v8.832q3.456-4.864 8.832-7.744t11.776-2.88q7.232 0 13.248 3.584 6.016 3.52 9.408 9.408 3.392-5.888 9.344-9.408 5.952-3.584 13.184-3.584t13.184 3.52 9.472 9.472 3.52 13.184V132h-8.96V94.368q0-5.12-2.496-9.472t-6.72-6.976q-4.16-2.688-9.28-2.688t-9.344 2.496q-4.16 2.432-6.656 6.784-2.496 4.288-2.496 9.856V132h-8.96V94.368q0-5.568-2.496-9.856-2.496-4.352-6.72-6.784-4.224-2.496-9.344-2.496-5.056 0-9.28 2.688-4.224 2.625-6.72 6.976-2.496 4.352-2.496 9.472V132zm165.108-64h8.96v64h-8.96l-.32-11.904q-3.136 6.08-8.768 9.856-5.633 3.712-13.44 3.712-7.04 0-13.184-2.624-6.144-2.688-10.816-7.36a34.1 34.1 0 0 1-7.296-10.816q-2.624-6.144-2.624-13.184 0-6.912 2.56-12.992 2.624-6.08 7.168-10.688a33.4 33.4 0 0 1 10.624-7.168q6.08-2.624 12.992-2.624 8 0 13.952 3.84 5.952 3.776 9.472 9.92zm-22.72 56.96q6.848 0 11.776-3.328 4.928-3.392 7.552-9.088 2.688-5.696 2.688-12.544 0-7.04-2.688-12.672-2.688-5.696-7.616-9.024t-11.712-3.328-12.416 3.392q-5.568 3.328-8.896 9.024-3.264 5.696-3.264 12.608 0 6.976 3.392 12.672 3.392 5.632 8.96 8.96 5.632 3.328 12.224 3.328m41.927-17.472V68h8.96v37.696q0 5.248 2.56 9.536a19.5 19.5 0 0 0 6.848 6.848q4.352 2.56 9.536 2.56 5.248 0 9.472-2.56a19.5 19.5 0 0 0 6.848-6.848q2.56-4.288 2.56-9.536V68h8.96l.064 64h-8.96l-.064-8.96q-3.392 4.864-8.832 7.744-5.376 2.88-11.776 2.88-7.232 0-13.184-3.52t-9.472-9.472-3.52-13.184M742.509 76.96h-15.296l-.064 55.04h-8.96l.064-55.04h-11.584V68h11.584l-.064-20.096h8.96L727.213 68h15.296zm67.229 15.424V132h-8.96V94.176q0-5.248-2.56-9.536a19.5 19.5 0 0 0-6.848-6.848q-4.288-2.56-9.536-2.56-5.184 0-9.536 2.56a19.5 19.5 0 0 0-6.848 6.848q-2.56 4.288-2.56 9.536V132h-8.96V36h8.96v40.832q3.392-4.864 8.832-7.744t11.84-2.88q7.232 0 13.184 3.52t9.472 9.472 3.52 13.184"/></mask><path fill="#2A3133" d="M43.39 164h-8.96V68h8.96v11.968q3.328-6.08 9.088-9.856t13.696-3.776q6.976 0 13.056 2.624 6.144 2.624 10.752 7.296 4.608 4.608 7.232 10.688T99.838 100t-2.624 13.12-7.232 10.816q-4.608 4.608-10.752 7.232-6.08 2.624-13.056 2.624-7.936 0-13.696-3.776t-9.088-9.856zm22.72-88.96q-6.72 0-11.712 3.392-4.928 3.328-7.616 8.96T44.094 100q0 6.848 2.624 12.544 2.688 5.696 7.616 9.088 4.992 3.392 11.776 3.392 6.656 0 12.224-3.328 5.632-3.328 9.024-8.96Q90.75 107.04 90.75 100q0-6.847-3.328-12.48-3.328-5.696-8.896-9.088-5.567-3.392-12.416-3.392m99.878 17.344V132h-8.96V94.176q0-5.248-2.56-9.536a19.5 19.5 0 0 0-6.848-6.848q-4.288-2.56-9.536-2.56-5.184 0-9.536 2.56a19.5 19.5 0 0 0-6.848 6.848q-2.56 4.288-2.56 9.536V132h-8.96V36h8.96v40.832q3.391-4.864 8.832-7.744 5.44-2.88 11.84-2.88 7.232 0 13.184 3.52t9.472 9.472 3.52 13.184M230.163 68h8.96v64h-8.96l-.32-11.904q-3.136 6.08-8.768 9.856-5.632 3.712-13.44 3.712-7.04 0-13.184-2.624-6.144-2.688-10.816-7.36a34.1 34.1 0 0 1-7.296-10.816q-2.624-6.144-2.624-13.184 0-6.912 2.56-12.992 2.624-6.08 7.168-10.688a33.4 33.4 0 0 1 10.624-7.168q6.08-2.624 12.992-2.624 8 0 13.952 3.84 5.952 3.776 9.472 9.92zm-22.72 56.96q6.848 0 11.776-3.328 4.928-3.392 7.552-9.088 2.688-5.696 2.688-12.544 0-7.04-2.688-12.672-2.688-5.696-7.616-9.024t-11.712-3.328-12.416 3.392q-5.568 3.328-8.896 9.024-3.264 5.696-3.264 12.608 0 6.976 3.392 12.672 3.392 5.632 8.96 8.96 5.632 3.328 12.224 3.328m100.295-32.576V132h-8.96V94.176q0-5.248-2.56-9.536a19.5 19.5 0 0 0-6.848-6.848q-4.288-2.56-9.536-2.56-5.184 0-9.536 2.56a19.5 19.5 0 0 0-6.848 6.848q-2.56 4.288-2.56 9.536V132h-8.96V68h8.96v8.832q3.391-4.864 8.832-7.744 5.44-2.88 11.84-2.88 7.232 0 13.184 3.52t9.472 9.472 3.52 13.184m45.521-15.424h-15.296l-.064 55.04h-8.96l.064-55.04h-11.584V68h11.584l-.064-20.096h8.96L337.963 68h15.296zM456.93 132V68h8.96v8.832q3.456-4.864 8.832-7.744t11.776-2.88q7.232 0 13.248 3.584 6.016 3.52 9.408 9.408 3.392-5.888 9.344-9.408 5.952-3.584 13.184-3.584t13.184 3.52 9.472 9.472 3.52 13.184V132h-8.96V94.368q0-5.12-2.496-9.472t-6.72-6.976q-4.16-2.688-9.28-2.688t-9.344 2.496q-4.16 2.432-6.656 6.784-2.496 4.288-2.496 9.856V132h-8.96V94.368q0-5.568-2.496-9.856-2.496-4.352-6.72-6.784-4.224-2.496-9.344-2.496-5.056 0-9.28 2.688-4.224 2.625-6.72 6.976-2.496 4.352-2.496 9.472V132zm165.108-64h8.96v64h-8.96l-.32-11.904q-3.136 6.08-8.768 9.856-5.633 3.712-13.44 3.712-7.04 0-13.184-2.624-6.144-2.688-10.816-7.36a34.1 34.1 0 0 1-7.296-10.816q-2.624-6.144-2.624-13.184 0-6.912 2.56-12.992 2.624-6.08 7.168-10.688a33.4 33.4 0 0 1 10.624-7.168q6.08-2.624 12.992-2.624 8 0 13.952 3.84 5.952 3.776 9.472 9.92zm-22.72 56.96q6.848 0 11.776-3.328 4.928-3.392 7.552-9.088 2.688-5.696 2.688-12.544 0-7.04-2.688-12.672-2.688-5.696-7.616-9.024t-11.712-3.328-12.416 3.392q-5.568 3.328-8.896 9.024-3.264 5.696-3.264 12.608 0 6.976 3.392 12.672 3.392 5.632 8.96 8.96 5.632 3.328 12.224 3.328m41.927-17.472V68h8.96v37.696q0 5.248 2.56 9.536a19.5 19.5 0 0 0 6.848 6.848q4.352 2.56 9.536 2.56 5.248 0 9.472-2.56a19.5 19.5 0 0 0 6.848-6.848q2.56-4.288 2.56-9.536V68h8.96l.064 64h-8.96l-.064-8.96q-3.392 4.864-8.832 7.744-5.376 2.88-11.776 2.88-7.232 0-13.184-3.52t-9.472-9.472-3.52-13.184M742.509 76.96h-15.296l-.064 55.04h-8.96l.064-55.04h-11.584V68h11.584l-.064-20.096h8.96L727.213 68h15.296zm67.229 15.424V132h-8.96V94.176q0-5.248-2.56-9.536a19.5 19.5 0 0 0-6.848-6.848q-4.288-2.56-9.536-2.56-5.184 0-9.536 2.56a19.5 19.5 0 0 0-6.848 6.848q-2.56 4.288-2.56 9.536V132h-8.96V36h8.96v40.832q3.392-4.864 8.832-7.744t11.84-2.88q7.232 0 13.184 3.52t9.472 9.472 3.52 13.184"/><path fill="#2A3133" d="M43.39 164v1h1v-1zm-8.96 0h-1v1h1zm0-96v-1h-1v1zm8.96 0h1v-1h-1zm0 11.968h-1l1.877.48zm9.088-9.856-.548-.836zM79.23 68.96l-.396.918.003.002zm10.752 7.296-.712.702.005.005zm7.232 10.688.918-.396zm0 26.176.92.393zm-7.232 10.816.707.707.005-.005zm-10.752 7.232-.393-.92-.003.002zM43.39 120.16l.877-.48-1.877.48zm11.008-41.728.56.829.002-.002zm-7.68 34.112-.908.418.004.009zm7.616 9.088-.567.824.005.003zm24 .064-.509-.861-.004.003zm9.024-8.96.857.516.002-.004zm.064-25.216-.863.505.002.004zm-8.896-9.088-.52.854zM43.39 163h-8.96v2h8.96zm-7.96 1V68h-2v96zm-1-95h8.96v-2h-8.96zm7.96-1v11.968h2V68zm1.877 12.448c2.14-3.91 5.057-7.073 8.76-9.5l-1.097-1.672c-3.978 2.608-7.12 6.016-9.417 10.212zm8.76-9.5c3.653-2.395 8.02-3.612 13.147-3.612v-2c-5.455 0-10.218 1.3-14.244 3.94zm13.147-3.612c4.522 0 8.738.85 12.66 2.542l.792-1.836c-4.185-1.806-8.672-2.706-13.452-2.706zm12.663 2.544c3.979 1.699 7.454 4.058 10.433 7.078l1.424-1.404q-4.75-4.814-11.071-7.514zm10.438 7.083q4.47 4.47 7.02 10.377l1.837-.792q-2.698-6.253-7.443-11zm7.02 10.377c1.693 3.922 2.543 8.138 2.543 12.66h2c0-4.78-.9-9.267-2.706-13.452zM98.839 100c0 4.522-.85 8.761-2.544 12.727l1.84.786q2.705-6.341 2.704-13.513zm-2.544 12.727q-2.55 5.973-7.024 10.507l1.424 1.404q4.743-4.81 7.44-11.125zm-7.02 10.502c-2.979 2.979-6.455 5.319-10.437 7.019l.786 1.84c4.21-1.799 7.902-4.28 11.066-7.445zm-10.44 7.021c-3.922 1.692-8.138 2.542-12.66 2.542v2c4.78 0 9.267-.9 13.452-2.706zm-12.66 2.542c-5.126 0-9.494-1.217-13.148-3.612l-1.096 1.672c4.026 2.64 8.789 3.94 14.244 3.94zm-13.148-3.612c-3.702-2.427-6.618-5.59-8.759-9.5l-1.754.96c2.297 4.196 5.439 7.604 9.417 10.212zm-10.636-9.02V164h2v-43.84zm23.72-46.12c-4.657 0-8.762 1.178-12.274 3.565l1.124 1.654c3.144-2.136 6.847-3.219 11.15-3.219zm-12.272 3.563c-3.44 2.324-6.094 5.451-7.959 9.358l1.806.862c1.719-3.602 4.142-6.448 7.273-8.562zm-7.959 9.358c-1.863 3.905-2.785 8.257-2.785 13.039h2c0-4.52.87-8.572 2.59-12.177zM43.095 100c0 4.696.9 9.022 2.716 12.962l1.816-.836c-1.683-3.655-2.532-7.692-2.532-12.126zm2.72 12.971c1.863 3.948 4.514 7.118 7.953 9.485l1.134-1.648c-3.132-2.156-5.558-5.044-7.279-8.691zm7.958 9.488c3.514 2.388 7.64 3.565 12.338 3.565v-2c-4.348 0-8.072-1.084-11.214-3.219zm12.338 3.565c4.613 0 8.866-1.156 12.737-3.47l-1.026-1.716c-3.553 2.123-7.45 3.186-11.711 3.186zm12.733-3.467c3.898-2.304 7.025-5.409 9.372-9.305L86.5 112.22c-2.176 3.613-5.065 6.481-8.676 8.615zm9.374-9.309c2.36-3.962 3.533-8.386 3.533-13.248h-2c0 4.525-1.088 8.591-3.251 12.224zM91.75 100c0-4.736-1.153-9.073-3.467-12.989L86.56 88.03c2.123 3.593 3.189 7.576 3.189 11.971zm-3.465-12.984c-2.3-3.94-5.383-7.09-9.239-9.438l-1.04 1.708c3.568 2.174 6.416 5.082 8.553 8.739zm-9.239-9.438C75.17 75.216 70.85 74.04 66.11 74.04v2c4.391 0 8.349 1.085 11.896 3.246zM165.988 132v1h1v-1zm-8.96 0h-1v1h1zm-2.56-47.36-.859.513zm-6.848-6.848.513-.859zm-19.072 0-.507-.862-.006.003zM121.7 84.64l.859.513zM119.14 132v1h1v-1zm-8.96 0h-1v1h1zm0-96v-1h-1v1zm8.96 0h1v-1h-1zm0 40.832h-1v3.182l1.82-2.61zm8.832-7.744-.468-.884zm25.024.64.509-.86zm11.992 22.656V132h2V92.384zm1 38.616h-8.96v2h8.96zm-7.96 1V94.176h-2V132zm0-37.824c0-3.67-.897-7.027-2.701-10.049l-1.718 1.026c1.61 2.695 2.419 5.695 2.419 9.023zm-2.701-10.049a20.5 20.5 0 0 0-7.194-7.194l-1.026 1.718a18.5 18.5 0 0 1 6.502 6.502zm-7.194-7.194c-3.022-1.804-6.379-2.701-10.049-2.701v2c3.328 0 6.328.81 9.023 2.419zm-10.049-2.701c-3.629 0-6.984.898-10.043 2.698l1.014 1.724c2.743-1.614 5.746-2.422 9.029-2.422zm-10.049 2.701a20.5 20.5 0 0 0-7.194 7.194l1.718 1.026a18.5 18.5 0 0 1 6.502-6.502zm-7.194 7.194c-1.804 3.022-2.701 6.38-2.701 10.049h2c0-3.328.809-6.328 2.419-9.023zm-2.701 10.049V132h2V94.176zm1 36.824h-8.96v2h8.96zm-7.96 1V36h-2v96zm-1-95h8.96v-2h-8.96zm7.96-1v40.832h2V36zm1.82 41.404c2.167-3.107 4.988-5.584 8.48-7.432l-.936-1.768c-3.762 1.992-6.828 4.678-9.184 8.056zm8.48-7.432c3.477-1.84 7.262-2.764 11.372-2.764v-2c-4.423 0-8.531.997-12.308 2.996zm11.372-2.764c4.651 0 8.868 1.13 12.675 3.38l1.018-1.72c-4.129-2.443-8.701-3.66-13.693-3.66zm12.675 3.38c3.823 2.262 6.859 5.298 9.12 9.121l1.722-1.018c-2.433-4.113-5.711-7.391-9.824-9.824zm9.12 9.121c2.251 3.807 3.381 8.024 3.381 12.675h2c0-4.992-1.217-9.564-3.659-13.693zM230.163 68v-1h-1.027l.027 1.027zm8.96 0h1v-1h-1zm0 64v1h1v-1zm-8.96 0-1 .027.027.973h.973zm-.32-11.904 1-.027-1.889-.431zm-8.768 9.856.55.835.007-.004zm-26.624 1.088-.401.916.008.004zm-10.816-7.36-.707.707zm-7.296-10.816.92-.393zm-.064-26.176-.918-.396-.004.008zM183.443 76l-.707-.707-.005.005zm10.624-7.168.392.92.004-.002zm26.944 1.216-.542.84.006.004zm9.472 9.92-.868.497 1.868-.524zm-11.264 41.664.56.829.007-.005zm7.552-9.088-.904-.427-.004.009zm0-25.216-.904.427.002.004zm-31.744-8.96.513.858.003-.001zm-8.896 9.024-.863-.504-.005.007zm.128 25.28-.859.512.002.004zm8.96 8.96-.513.858.004.003zM230.163 69h8.96v-2h-8.96zm7.96-1v64h2V68zm1 63h-8.96v2h8.96zm-7.96.973-.32-11.904-2 .054.32 11.904zm-2.209-12.335c-2.014 3.904-4.823 7.061-8.436 9.483l1.114 1.662c3.896-2.613 6.932-6.027 9.1-10.229zm-8.429 9.479c-3.567 2.351-7.849 3.547-12.89 3.547v2c5.369 0 10.048-1.279 13.99-3.877zm-12.89 3.547c-4.566 0-8.826-.85-12.791-2.544l-.786 1.84c4.227 1.805 8.756 2.704 13.577 2.704zm-12.783-2.54q-5.974-2.614-10.51-7.151l-1.414 1.414q4.808 4.807 11.122 7.569zm-10.51-7.151a33.1 33.1 0 0 1-7.083-10.502l-1.84.786a35.1 35.1 0 0 0 7.509 11.13zm-7.083-10.502c-1.694-3.965-2.544-8.225-2.544-12.791h-2c0 4.821.899 9.35 2.704 13.577zm-2.544-12.791q.001-6.72 2.482-12.604l-1.844-.776c-1.76 4.182-2.638 8.645-2.638 13.38zm2.478-12.596q2.553-5.911 6.962-10.382l-1.424-1.404c-3.118 3.162-5.577 6.83-7.374 10.994zm6.957-10.377a32.35 32.35 0 0 1 10.309-6.955l-.784-1.84a34.4 34.4 0 0 0-10.939 7.38zm10.313-6.957c3.923-1.693 8.118-2.542 12.596-2.542v-2c-4.738 0-9.204.9-13.388 2.706zm12.596-2.542c5.167 0 9.624 1.238 13.41 3.68l1.084-1.68c-4.15-2.678-8.994-4-14.494-4zm13.416 3.684c3.83 2.43 6.874 5.618 9.14 9.573l1.736-.994c-2.427-4.237-5.698-7.663-9.804-10.267zm11.008 9.05-.32-11.969-2 .054.32 11.968zm-24.04 46.018c4.734 0 8.861-1.153 12.336-3.499l-1.12-1.658c-3.096 2.091-6.819 3.157-11.216 3.157zm12.343-3.504c3.441-2.369 6.072-5.541 7.893-9.494l-1.816-.836c-1.678 3.642-4.081 6.528-7.211 8.682zm7.889-9.485c1.861-3.942 2.784-8.271 2.784-12.971h-2c0 4.431-.869 8.465-2.592 12.117zM230.459 100c0-4.823-.922-9.197-2.786-13.103l-1.804.862c1.72 3.604 2.59 7.677 2.59 12.241zm-2.784-13.099c-1.864-3.95-4.517-7.1-7.96-9.426l-1.12 1.658c3.128 2.112 5.552 4.977 7.272 8.622zm-7.96-9.426c-3.473-2.345-7.579-3.499-12.272-3.499v2c4.352 0 8.055 1.065 11.152 3.157zm-12.272-3.499c-4.698 0-9.016 1.177-12.932 3.535l1.032 1.714c3.594-2.165 7.553-3.249 11.9-3.249zm-12.929 3.534c-3.859 2.306-6.944 5.437-9.246 9.377l1.726 1.01c2.136-3.655 4.981-6.54 8.546-8.67zm-9.251 9.385c-2.267 3.957-3.396 8.332-3.396 13.105h2c0-4.443 1.047-8.473 3.132-12.11zM181.867 100c0 4.821 1.174 9.223 3.533 13.184l1.718-1.024c-2.164-3.634-3.251-7.68-3.251-12.16zm3.535 13.188c2.345 3.893 5.449 6.998 9.304 9.302l1.026-1.716c-3.569-2.134-6.439-5.002-8.616-8.618zm9.308 9.305c3.91 2.31 8.161 3.467 12.733 3.467v-2c-4.217 0-8.116-1.062-11.715-3.189zM307.738 132v1h1v-1zm-8.96 0h-1v1h1zm-2.56-47.36-.859.513zm-6.848-6.848.513-.859zm-19.072 0-.507-.862-.006.003zm-6.848 6.848.859.513zM260.89 132v1h1v-1zm-8.96 0h-1v1h1zm0-64v-1h-1v1zm8.96 0h1v-1h-1zm0 8.832h-1v3.182l1.82-2.61zm8.832-7.744-.468-.884zm25.024.64.509-.86zm11.992 22.656V132h2V92.384zm1 38.616h-8.96v2h8.96zm-7.96 1V94.176h-2V132zm0-37.824c0-3.67-.897-7.027-2.701-10.049l-1.718 1.026c1.61 2.695 2.419 5.695 2.419 9.023zm-2.701-10.049a20.5 20.5 0 0 0-7.194-7.194l-1.026 1.718a18.5 18.5 0 0 1 6.502 6.502zm-7.194-7.194c-3.022-1.804-6.379-2.701-10.049-2.701v2c3.328 0 6.328.81 9.023 2.419zm-10.049-2.701c-3.629 0-6.984.898-10.043 2.698l1.014 1.724c2.743-1.614 5.746-2.422 9.029-2.422zm-10.049 2.701a20.5 20.5 0 0 0-7.194 7.194l1.718 1.026a18.5 18.5 0 0 1 6.502-6.502zm-7.194 7.194c-1.804 3.022-2.701 6.38-2.701 10.049h2c0-3.328.809-6.328 2.419-9.023zm-2.701 10.049V132h2V94.176zm1 36.824h-8.96v2h8.96zm-7.96 1V68h-2v64zm-1-63h8.96v-2h-8.96zm7.96-1v8.832h2V68zm1.82 9.404c2.167-3.107 4.988-5.584 8.48-7.432l-.936-1.768c-3.762 1.992-6.828 4.678-9.184 8.056zm8.48-7.432c3.477-1.84 7.262-2.764 11.372-2.764v-2c-4.423 0-8.531.997-12.308 2.996zm11.372-2.764c4.651 0 8.868 1.13 12.675 3.38l1.018-1.72c-4.129-2.443-8.701-3.66-13.693-3.66zm12.675 3.38c3.823 2.262 6.859 5.298 9.12 9.121l1.722-1.018c-2.433-4.113-5.711-7.391-9.824-9.824zm9.12 9.121c2.251 3.807 3.381 8.024 3.381 12.675h2c0-4.992-1.217-9.564-3.659-13.693zm49.902-2.749v1h1v-1zm-15.296 0v-1h-.999l-.001.999zm-.064 55.04v1h.999l.001-.999zm-8.96 0-1-.001-.001 1.001h1.001zm.064-55.04 1 .001.001-1.001h-1.001zm-11.584 0h-1v1h1zm0-8.96v-1h-1v1zm11.584 0v1h1.003l-.003-1.003zm-.064-20.096v-1h-1.003l.003 1.003zm8.96 0 1-.003-.003-.997h-.997zM337.963 68l-1 .003.003.997h.997zm15.296 0h1v-1h-1zm0 7.96h-15.296v2h15.296zm-16.296.999-.064 55.04 2 .002.064-55.04zm.936 54.041h-8.96v2h8.96zm-7.96 1.001.064-55.04-2-.002-.064 55.04zm-.936-56.041h-11.584v2h11.584zm-10.584 1V68h-2v8.96zm-1-7.96h11.584v-2h-11.584zm12.584-1.003-.064-20.096-2 .006.064 20.096zm-1.064-19.093h8.96v-2h-8.96zm7.96-.997.064 20.096 2-.006-.064-20.096zM337.963 69h15.296v-2h-15.296zm14.296-1v8.96h2V68zm104.671 64h-1v1h1zm0-64v-1h-1v1zm8.96 0h1v-1h-1zm0 8.832h-1v3.134l1.815-2.555zm8.832-7.744-.472-.881zm25.024.704-.512.86.007.003zm9.408 9.408-.866.5.866 1.503.867-1.504zm9.344-9.408.509.86.007-.003zm26.368-.064.509-.86zM557.858 132v1h1v-1zm-8.96 0h-1v1h1zm-2.496-47.104.867-.498zm-6.72-6.976-.543.84.008.005.007.004zm-18.624-.192.505.863.004-.002zm-6.656 6.784.864.503.003-.005zM511.906 132v1h1v-1zm-8.96 0h-1v1h1zm-2.496-47.488-.867.498.003.005zm-6.72-6.784-.509.861.01.006zm-18.624.192.528.85.009-.006zm-6.72 6.976-.867-.498zM465.89 132v1h1v-1zm-7.96 0V68h-2v64zm-1-63h8.96v-2h-8.96zm7.96-1v8.832h2V68zm1.815 9.411c2.213-3.114 5.038-5.593 8.489-7.442l-.944-1.762c-3.717 1.99-6.78 4.674-9.175 8.046zm8.489-7.442c3.432-1.838 7.194-2.761 11.304-2.761v-2c-4.423 0-8.512.997-12.248 2.999zm11.304-2.761c4.647 0 8.886 1.15 12.736 3.443l1.024-1.718c-4.171-2.485-8.765-3.725-13.76-3.725zm12.743 3.447c3.865 2.261 6.874 5.273 9.047 9.044l1.733-.998c-2.351-4.08-5.613-7.34-9.77-9.772zm10.78 9.044c2.173-3.773 5.164-6.786 8.986-9.046l-1.018-1.722c-4.114 2.433-7.353 5.692-9.701 9.77zm8.993-9.05c3.806-2.292 8.021-3.441 12.668-3.441v-2c-4.995 0-9.57 1.24-13.7 3.727zm12.668-3.441c4.651 0 8.868 1.13 12.675 3.38l1.018-1.72c-4.129-2.443-8.701-3.66-13.693-3.66zm12.675 3.38c3.823 2.262 6.859 5.298 9.12 9.121l1.722-1.018c-2.433-4.113-5.711-7.391-9.824-9.824zm9.12 9.121c2.251 3.807 3.381 8.024 3.381 12.675h2c0-4.992-1.217-9.564-3.659-13.693zm3.381 12.675V132h2V92.384zm1 38.616h-8.96v2h8.96zm-7.96 1V94.368h-2V132zm0-37.632c0-3.584-.876-6.913-2.629-9.97l-1.734.996c1.575 2.746 2.363 5.731 2.363 8.974zm-2.629-9.97c-1.745-3.043-4.101-5.49-7.059-7.327l-1.056 1.698c2.674 1.662 4.798 3.865 6.381 6.624zm-7.044-7.318c-2.941-1.9-6.224-2.848-9.823-2.848v2c3.228 0 6.131.844 8.737 2.528zm-9.823-2.848c-3.584 0-6.876.876-9.853 2.635l1.018 1.722c2.655-1.569 5.592-2.357 8.835-2.357zm-9.849 2.633c-2.93 1.713-5.271 4.103-7.018 7.15l1.734.995c1.581-2.757 3.677-4.89 6.294-6.419zm-7.015 7.144c-1.764 3.03-2.632 6.492-2.632 10.359h2c0-3.557.796-6.665 2.36-9.353zm-2.632 10.359V132h2V94.368zm1 36.632h-8.96v2h8.96zm-7.96 1V94.368h-2V132zm0-37.632c0-3.867-.868-7.33-2.632-10.36l-1.728 1.007c1.564 2.688 2.36 5.796 2.36 9.353zm-2.629-10.353c-1.749-3.05-4.114-5.441-7.088-7.154l-.998 1.734c2.658 1.53 4.773 3.662 6.352 6.415zm-7.078-7.148c-2.977-1.759-6.269-2.635-9.853-2.635v2c3.243 0 6.18.788 8.835 2.357zm-9.853-2.635c-3.559 0-6.839.95-9.817 2.844l1.074 1.688c2.654-1.69 5.561-2.532 8.743-2.532zm-9.808 2.839c-2.958 1.837-5.314 4.284-7.059 7.328l1.734.995c1.583-2.76 3.707-4.963 6.381-6.625zm-7.059 7.328c-1.753 3.055-2.629 6.385-2.629 9.969h2c0-3.242.788-6.228 2.363-8.974zm-2.629 9.969V132h2V94.368zm1 36.632h-8.96v2h8.96zm156.148-63v-1h-1.027l.027 1.027zm8.96 0h1v-1h-1zm0 64v1h1v-1zm-8.96 0-1 .027.027.973h.973zm-.32-11.904 1-.027-1.889-.431zm-8.768 9.856.55.835.007-.004zm-26.624 1.088-.401.916.008.004zm-10.816-7.36-.707.707zm-7.296-10.816.92-.393zm-.064-26.176-.918-.396-.004.008zM575.318 76l-.707-.707-.005.005zm10.624-7.168.392.92.004-.002zm26.944 1.216-.542.84.006.004zm9.472 9.92-.868.497 1.868-.524zm-11.264 41.664.56.829.007-.005zm7.552-9.088-.904-.427-.004.009zm0-25.216-.904.427.002.004zm-31.744-8.96.513.858.003-.001zm-8.896 9.024-.863-.504-.005.007zm.128 25.28-.859.512.002.004zm8.96 8.96-.513.858.004.003zM622.038 69h8.96v-2h-8.96zm7.96-1v64h2V68zm1 63h-8.96v2h8.96zm-7.96.973-.32-11.904-2 .054.32 11.904zm-2.209-12.335c-2.014 3.904-4.823 7.061-8.436 9.483l1.114 1.662c3.896-2.613 6.932-6.027 9.1-10.229zm-8.429 9.479c-3.567 2.351-7.849 3.547-12.89 3.547v2c5.369 0 10.048-1.279 13.99-3.877zm-12.89 3.547c-4.566 0-8.826-.85-12.791-2.544l-.786 1.84c4.227 1.805 8.756 2.704 13.577 2.704zm-12.783-2.54q-5.974-2.614-10.51-7.151l-1.414 1.414c3.204 3.204 6.914 5.728 11.122 7.569zm-10.51-7.151a33.1 33.1 0 0 1-7.083-10.502l-1.84.786a35.1 35.1 0 0 0 7.509 11.13zm-7.083-10.502c-1.694-3.965-2.544-8.225-2.544-12.791h-2c0 4.821.899 9.35 2.704 13.577zM566.59 99.68q.001-6.72 2.482-12.604l-1.844-.776c-1.76 4.182-2.638 8.645-2.638 13.38zm2.478-12.596q2.553-5.911 6.962-10.382l-1.424-1.404c-3.118 3.162-5.577 6.83-7.374 10.994zm6.957-10.377a32.35 32.35 0 0 1 10.309-6.955l-.784-1.84a34.4 34.4 0 0 0-10.939 7.38zm10.313-6.957c3.923-1.693 8.118-2.542 12.596-2.542v-2c-4.738 0-9.204.9-13.388 2.706zm12.596-2.542c5.167 0 9.624 1.238 13.41 3.68l1.084-1.68c-4.15-2.678-8.994-4-14.494-4zm13.416 3.684c3.83 2.43 6.874 5.618 9.14 9.573l1.736-.994c-2.427-4.237-5.698-7.663-9.804-10.267zm11.008 9.05-.32-11.969-2 .054.32 11.968zm-24.04 46.018c4.734 0 8.861-1.153 12.336-3.499l-1.12-1.658c-3.096 2.091-6.819 3.157-11.216 3.157zm12.343-3.504c3.441-2.369 6.072-5.541 7.893-9.494l-1.816-.836c-1.678 3.642-4.081 6.528-7.211 8.682zm7.889-9.485c1.861-3.942 2.784-8.271 2.784-12.971h-2c0 4.431-.869 8.465-2.592 12.117zM622.334 100c0-4.823-.922-9.197-2.786-13.103l-1.804.862c1.72 3.604 2.59 7.677 2.59 12.241zm-2.784-13.099c-1.864-3.95-4.517-7.1-7.96-9.426l-1.12 1.658c3.128 2.112 5.552 4.977 7.272 8.622zm-7.96-9.426c-3.473-2.345-7.579-3.499-12.272-3.499v2c4.352 0 8.055 1.065 11.152 3.157zm-12.272-3.499c-4.698 0-9.016 1.177-12.932 3.535l1.032 1.714c3.594-2.165 7.553-3.249 11.9-3.249zm-12.929 3.534c-3.859 2.306-6.944 5.437-9.246 9.377l1.726 1.01c2.136-3.655 4.981-6.54 8.546-8.67zm-9.251 9.385c-2.267 3.957-3.396 8.332-3.396 13.105h2c0-4.443 1.047-8.473 3.132-12.11zM573.742 100c0 4.821 1.174 9.223 3.533 13.184l1.718-1.024c-2.164-3.634-3.251-7.68-3.251-12.16zm3.535 13.188c2.345 3.893 5.449 6.998 9.304 9.302l1.026-1.716c-3.569-2.134-6.439-5.002-8.616-8.618zm9.308 9.305c3.91 2.31 8.161 3.467 12.733 3.467v-2c-4.217 0-8.116-1.062-11.715-3.189zM641.245 68v-1h-1v1zm8.96 0h1v-1h-1zm2.56 47.232.859-.513zm6.848 6.848-.513.859.006.003zm19.008 0-.513-.859-.005.004zm6.848-6.848-.859-.513zM688.029 68v-1h-1v1zm8.96 0 1-.001-.001-.999h-.999zm.064 64v1h1.001l-.001-1.001zm-8.96 0-1 .007.007.993h.993zm-.064-8.96 1-.007-.022-3.143-1.798 2.578zm-8.832 7.744-.468-.884-.004.003zm-24.96-.64.509-.861zm-9.472-9.472-.861.509zm-2.52-13.184V68h-2v39.488zm-1-38.488h8.96v-2h-8.96zm7.96-1v37.696h2V68zm0 37.696c0 3.67.897 7.027 2.701 10.049l1.718-1.026c-1.61-2.695-2.419-5.695-2.419-9.023zm2.701 10.049c1.792 3 4.194 5.402 7.194 7.194l1.026-1.718a18.5 18.5 0 0 1-6.502-6.502zm7.2 7.197c3.059 1.799 6.414 2.698 10.043 2.698v-2c-3.283 0-6.286-.808-9.029-2.422zm10.043 2.698c3.67 0 7.008-.897 9.99-2.705l-1.036-1.71c-2.65 1.606-5.626 2.415-8.954 2.415zm9.985-2.701c3-1.792 5.402-4.194 7.194-7.194l-1.718-1.026a18.5 18.5 0 0 1-6.502 6.502zm7.194-7.194c1.804-3.022 2.701-6.379 2.701-10.049h-2c0 3.328-.809 6.328-2.419 9.023zm2.701-10.049V68h-2v37.696zm-1-36.696h8.96v-2h-8.96zm7.96-.999.064 64 2-.002-.064-64zM697.053 131h-8.96v2h8.96zm-7.96.993-.064-8.96-2 .014.064 8.96zm-1.884-9.525c-2.167 3.107-4.988 5.584-8.48 7.432l.936 1.768c3.762-1.992 6.828-4.678 9.184-8.056zm-8.484 7.435c-3.432 1.838-7.194 2.761-11.304 2.761v2c4.423 0 8.512-.997 12.248-2.999zm-11.304 2.761c-4.651 0-8.868-1.13-12.675-3.381l-1.018 1.722c4.129 2.442 8.701 3.659 13.693 3.659zm-12.675-3.381c-3.823-2.261-6.859-5.297-9.12-9.12l-1.722 1.018c2.433 4.113 5.711 7.391 9.824 9.824zm-9.12-9.12c-2.251-3.807-3.381-8.024-3.381-12.675h-2c0 4.992 1.217 9.564 3.659 13.693zm96.883-43.203v1h1v-1zm-15.296 0v-1h-.999l-.001.999zm-.064 55.04v1h.999l.001-.999zm-8.96 0-1-.001-.001 1.001h1.001zm.064-55.04 1 .001.001-1.001h-1.001zm-11.584 0h-1v1h1zm0-8.96v-1h-1v1zm11.584 0v1h1.003l-.003-1.003zm-.064-20.096v-1h-1.003l.003 1.003zm8.96 0 1-.003-.003-.997h-.997zM727.213 68l-1 .003.003.997h.997zm15.296 0h1v-1h-1zm0 7.96h-15.296v2h15.296zm-16.296.999-.064 55.04 2 .002.064-55.04zm.936 54.041h-8.96v2h8.96zm-7.96 1.001.064-55.04-2-.002-.064 55.04zm-.936-56.041h-11.584v2h11.584zm-10.584 1V68h-2v8.96zm-1-7.96h11.584v-2h-11.584zm12.584-1.003-.064-20.096-2 .006.064 20.096zm-1.064-19.093h8.96v-2h-8.96zm7.96-.997.064 20.096 2-.006-.064-20.096zM727.213 69h15.296v-2h-15.296zm14.296-1v8.96h2V68zm68.229 64v1h1v-1zm-8.96 0h-1v1h1zm-2.56-47.36-.859.513zm-6.848-6.848.513-.859zm-19.072 0-.507-.862-.006.003zm-6.848 6.848.859.513zM762.89 132v1h1v-1zm-8.96 0h-1v1h1zm0-96v-1h-1v1zm8.96 0h1v-1h-1zm0 40.832h-1v3.182l1.82-2.61zm8.832-7.744-.468-.884zm25.024.64.509-.86zm11.992 22.656V132h2V92.384zm1 38.616h-8.96v2h8.96zm-7.96 1V94.176h-2V132zm0-37.824c0-3.67-.897-7.027-2.701-10.049l-1.718 1.026c1.61 2.695 2.419 5.695 2.419 9.023zm-2.701-10.049a20.5 20.5 0 0 0-7.194-7.194l-1.026 1.718a18.5 18.5 0 0 1 6.502 6.502zm-7.194-7.194c-3.022-1.804-6.379-2.701-10.049-2.701v2c3.328 0 6.328.81 9.023 2.419zm-10.049-2.701c-3.629 0-6.984.898-10.043 2.698l1.014 1.724c2.743-1.614 5.746-2.422 9.029-2.422zm-10.049 2.701a20.5 20.5 0 0 0-7.194 7.194l1.718 1.026a18.5 18.5 0 0 1 6.502-6.502zm-7.194 7.194c-1.804 3.022-2.701 6.38-2.701 10.049h2c0-3.328.809-6.328 2.419-9.023zm-2.701 10.049V132h2V94.176zm1 36.824h-8.96v2h8.96zm-7.96 1V36h-2v96zm-1-95h8.96v-2h-8.96zm7.96-1v40.832h2V36zm1.82 41.404c2.167-3.107 4.988-5.584 8.48-7.432l-.936-1.768c-3.762 1.992-6.828 4.678-9.184 8.056zm8.48-7.432c3.477-1.84 7.262-2.764 11.372-2.764v-2c-4.423 0-8.531.997-12.308 2.996zm11.372-2.764c4.651 0 8.868 1.13 12.675 3.38l1.018-1.72c-4.129-2.443-8.701-3.66-13.693-3.66zm12.675 3.38c3.823 2.262 6.859 5.298 9.12 9.121l1.722-1.018c-2.433-4.113-5.711-7.391-9.824-9.824zm9.12 9.121c2.251 3.807 3.381 8.024 3.381 12.675h2c0-4.992-1.217-9.564-3.659-13.693z" mask="url(#b)"/></g><defs><clipPath id="a"><path fill="#fff" d="M0 0h842v185H0z"/></clipPath></defs></svg>