<svg xmlns="http://www.w3.org/2000/svg" width="842" height="185" fill="none"><g clip-path="url(#a)"><circle cx="400.826" cy="94.826" r="30" fill="#22272e" transform="rotate(25.065 400.826 94.826)"/><circle cx="400.826" cy="94.826" r="41.5" stroke="#22272e" stroke-width="7" transform="rotate(25.065 400.826 94.826)"/><path fill="#22272e" d="m419.891 54.064 6.704 77.654-70.602-33.02z"/><circle cx="401.237" cy="95.237" r="25" fill="#C6C6C6" transform="rotate(25.065 401.237 95.237)"/><path fill="#22272e" d="M43.39 164h-8.96V68h8.96v11.968q3.328-6.08 9.088-9.856t13.696-3.776q6.976 0 13.056 2.624 6.144 2.624 10.752 7.296 4.608 4.608 7.232 10.688T99.838 100t-2.624 13.12-7.232 10.816q-4.608 4.608-10.752 7.232-6.08 2.624-13.056 2.624-7.936 0-13.696-3.776t-9.088-9.856zm22.72-88.96q-6.72 0-11.712 3.392-4.928 3.328-7.616 8.96T44.094 100q0 6.848 2.624 12.544 2.688 5.696 7.616 9.088 4.992 3.392 11.776 3.392 6.656 0 12.224-3.328 5.632-3.328 9.024-8.96Q90.75 107.04 90.75 100q0-6.847-3.328-12.48-3.328-5.696-8.896-9.088-5.567-3.392-12.416-3.392m99.878 17.344V132h-8.96V94.176q0-5.248-2.56-9.536a19.5 19.5 0 0 0-6.848-6.848q-4.288-2.56-9.536-2.56-5.184 0-9.536 2.56a19.5 19.5 0 0 0-6.848 6.848q-2.56 4.288-2.56 9.536V132h-8.96V36h8.96v40.832q3.391-4.864 8.832-7.744 5.44-2.88 11.84-2.88 7.232 0 13.184 3.52t9.472 9.472 3.52 13.184M230.163 68h8.96v64h-8.96l-.32-11.904q-3.136 6.08-8.768 9.856-5.632 3.712-13.44 3.712-7.04 0-13.184-2.624-6.144-2.688-10.816-7.36a34.1 34.1 0 0 1-7.296-10.816q-2.624-6.144-2.624-13.184 0-6.912 2.56-12.992 2.624-6.08 7.168-10.688a33.4 33.4 0 0 1 10.624-7.168q6.08-2.624 12.992-2.624 8 0 13.952 3.84 5.952 3.776 9.472 9.92zm-22.72 56.96q6.848 0 11.776-3.328 4.928-3.392 7.552-9.088 2.688-5.696 2.688-12.544 0-7.04-2.688-12.672-2.688-5.696-7.616-9.024t-11.712-3.328-12.416 3.392q-5.568 3.328-8.896 9.024-3.264 5.696-3.264 12.608 0 6.976 3.392 12.672 3.392 5.632 8.96 8.96 5.632 3.328 12.224 3.328m100.295-32.576V132h-8.96V94.176q0-5.248-2.56-9.536a19.5 19.5 0 0 0-6.848-6.848q-4.288-2.56-9.536-2.56-5.184 0-9.536 2.56a19.5 19.5 0 0 0-6.848 6.848q-2.56 4.288-2.56 9.536V132h-8.96V68h8.96v8.832q3.391-4.864 8.832-7.744 5.44-2.88 11.84-2.88 7.232 0 13.184 3.52t9.472 9.472 3.52 13.184m45.521-15.424h-15.296l-.064 55.04h-8.96l.064-55.04h-11.584V68h11.584l-.064-20.096h8.96L337.963 68h15.296zM456.93 132V68h8.96v8.832q3.456-4.864 8.832-7.744t11.776-2.88q7.232 0 13.248 3.584 6.016 3.52 9.408 9.408 3.392-5.888 9.344-9.408 5.952-3.584 13.184-3.584t13.184 3.52 9.472 9.472 3.52 13.184V132h-8.96V94.368q0-5.12-2.496-9.472t-6.72-6.976q-4.16-2.688-9.28-2.688t-9.344 2.496q-4.16 2.432-6.656 6.784-2.496 4.288-2.496 9.856V132h-8.96V94.368q0-5.568-2.496-9.856-2.496-4.352-6.72-6.784-4.224-2.496-9.344-2.496-5.056 0-9.28 2.688-4.224 2.625-6.72 6.976-2.496 4.352-2.496 9.472V132zm165.108-64h8.96v64h-8.96l-.32-11.904q-3.136 6.08-8.768 9.856-5.633 3.712-13.44 3.712-7.04 0-13.184-2.624-6.144-2.688-10.816-7.36a34.1 34.1 0 0 1-7.296-10.816q-2.624-6.144-2.624-13.184 0-6.912 2.56-12.992 2.624-6.08 7.168-10.688a33.4 33.4 0 0 1 10.624-7.168q6.08-2.624 12.992-2.624 8 0 13.952 3.84 5.952 3.776 9.472 9.92zm-22.72 56.96q6.848 0 11.776-3.328 4.928-3.392 7.552-9.088 2.688-5.696 2.688-12.544 0-7.04-2.688-12.672-2.688-5.696-7.616-9.024t-11.712-3.328-12.416 3.392q-5.568 3.328-8.896 9.024-3.264 5.696-3.264 12.608 0 6.976 3.392 12.672 3.392 5.632 8.96 8.96 5.632 3.328 12.224 3.328m41.927-17.472V68h8.96v37.696q0 5.248 2.56 9.536a19.5 19.5 0 0 0 6.848 6.848q4.352 2.56 9.536 2.56 5.248 0 9.472-2.56a19.5 19.5 0 0 0 6.848-6.848q2.56-4.288 2.56-9.536V68h8.96l.064 64h-8.96l-.064-8.96q-3.392 4.864-8.832 7.744-5.376 2.88-11.776 2.88-7.232 0-13.184-3.52t-9.472-9.472-3.52-13.184M742.509 76.96h-15.296l-.064 55.04h-8.96l.064-55.04h-11.584V68h11.584l-.064-20.096h8.96L727.213 68h15.296zm67.229 15.424V132h-8.96V94.176q0-5.248-2.56-9.536a19.5 19.5 0 0 0-6.848-6.848q-4.288-2.56-9.536-2.56-5.184 0-9.536 2.56a19.5 19.5 0 0 0-6.848 6.848q-2.56 4.288-2.56 9.536V132h-8.96V36h8.96v40.832q3.392-4.864 8.832-7.744t11.84-2.88q7.232 0 13.184 3.52t9.472 9.472 3.52 13.184"/></g><defs><clipPath id="a"><path fill="#fff" d="M0 0h842v185H0z"/></clipPath></defs></svg>